<svg height="24" viewBox="0 0 24 24" width="24" xmlns="http://www.w3.org/2000/svg"><g fill="none"><path d="m0 0h24v24h-24z"/><path d="m19 3c1.6569 0 3 1.34315 3 3v10c0 1.6569-1.3431 3-3 3h-3.6972l-2.6094 1.7396c-.4199.2799-.9669.2799-1.3868 0l-2.60938-1.7396h-3.69722c-1.65685 0-3-1.3431-3-3v-10c0-1.65685 1.34315-3 3-3zm-10.5 7c-.82843 0-1.5.6716-1.5 1.5s.67157 1.5 1.5 1.5 1.5-.6716 1.5-1.5-.67157-1.5-1.5-1.5zm7 0c-.8284 0-1.5.6716-1.5 1.5s.6716 1.5 1.5 1.5 1.5-.6716 1.5-1.5-.6716-1.5-1.5-1.5z" fill="#09244b"/></g></svg>